<svg xmlns="http://www.w3.org/2000/svg" viewBox="0 0 590 563.95"><defs><style>.cls-1{fill:#fff;fill-rule:evenodd;}</style></defs><title>Asset 1</title><g id="Layer_2" data-name="Layer 2"><g id="Layer_1-2" data-name="Layer 1"><path class="cls-1" d="M134,564V183.42H7.44V564ZM70.68,131.5c44.1,0,71.56-29.25,71.56-65.78C141.44,28.39,114.78,0,71.51,0S0,28.39,0,65.72c0,36.53,27.43,65.78,69.88,65.78Z"/><path class="cls-1" d="M203.9,564H330.39V351.44c0-11.37.8-22.73,4.21-30.84,9.06-22.74,29.91-46.27,64.87-46.27,45.75,0,64.06,34.9,64.06,86.05V564H590V345.76c0-116.87-62.41-171.25-145.58-171.25-68.28,0-98.25,38.15-114.86,64.12h.83V183.42H203.9c1.68,35.7,0,380.53,0,380.53Z"/></g></g></svg>