<svg xmlns="http://www.w3.org/2000/svg" viewBox="0 0 404.87 541.39"><defs><style>.cls-1{fill:#fff;}</style></defs><title>Asset 1</title><g id="Layer_2" data-name="Layer 2"><g id="Layer_1-2" data-name="Layer 1"><path class="cls-1" d="M337,405.78H202.78c-18.66,0-34.47-6.6-47.54-19.63s-19.55-29-19.55-47.66V271.28H337q28,0,47.92-20t20-47.86q0-27.87-20-47.86c-13.34-13.27-29.36-20-48-20H135.69V67.81q0-27.93-19.86-47.85C102.65,6.64,86.74,0,68.23,0Q39.66,0,19.88,19.55C6.64,32.59,0,48.74,0,67.87V338.58q0,83.88,59.51,143.33t143.33,59.48H337q27.93,0,47.86-20t20-47.88q0-27.9-20-47.82T337,405.78Z"/></g></g></svg>